# xmcd CD database file
#
# Track frame offsets:
#	150
#	29965
#	51502
#	69771
#	83185
#	101472
#	116994
#	129427
#	147510
#	160107
#	181202
#	195909
#	216584
#	233305
#	249319
#	272226
#	288881
#	295797
#	314031
#
# Disc length: 4441 seconds
#
# Revision: 0
# Processed by: cddbd v1.5.1PL0 Copyright (c) Steve Scherf et al.
# Submitted via: CDex 1.51
#
DISCID=1f115713
DTITLE=Various Artist - Happy Birthday Randy - Songs To Drive You All Night Long
DYEAR=1900
DGENRE=Merengue
TTITLE0=Melissa Ferrick - Drive
TTITLE1=Disappear Fear - Deep Soul Diver
TTITLE2=Dar Williams - Terrarium
TTITLE3=Kenny Loggins and Jim Messina - House at Pooh Corner
TTITLE4=Moxy Fruvous - Gulf War Song
TTITLE5=Moxy Fruvous - Beware the Killer Tents
TTITLE6=Utah Phillips - Shoot Or Stab Them
TTITLE7=Bitch and Animal - Pussy Manifesto
TTITLE8=Pete Seeger and Arlo Guthrie - Old Time Religion
TTITLE9=Unknown - Not Sure
TTITLE10=Kermit The Frog - The Rainbow Connection
TTITLE11=Tori Amos - A Case Of You
TTITLE12=Trisha Yearwood - You Can Sleep While I Drive
TTITLE13=Dar Williams - Ireland
TTITLE14=Unknown - Not Sure
TTITLE15=Bitch and Animal - Best Cock On The Block
TTITLE16=Hair - Sodomy
TTITLE17=Garbage - Androgyny
TTITLE18=Moxy Fruvous - And So It Goes
EXTD=
EXTT0=
EXTT1=
EXTT2=
EXTT3=
EXTT4=
EXTT5=
EXTT6=
EXTT7=
EXTT8=
EXTT9=
EXTT10=
EXTT11=
EXTT12=
EXTT13=
EXTT14=
EXTT15=
EXTT16=
EXTT17=
EXTT18=
PLAYORDER=
